<svg xmlns="http://www.w3.org/2000/svg" xmlns:xlink="http://www.w3.org/1999/xlink" width="500" zoomAndPan="magnify" viewBox="0 0 375 374.999991" height="500" preserveAspectRatio="xMidYMid meet" version="1.2"><defs/><g id="55b55b2ffa"><rect x="0" width="375" y="0" height="374.999991" style="fill:#ffffff;fill-opacity:1;stroke:none;"/><rect x="0" width="375" y="0" height="374.999991" style="fill:#ffffff;fill-opacity:1;stroke:none;"/><path style=" stroke:none;fill-rule:evenodd;fill:#fb7a00;fill-opacity:1;" d="M 79.980469 172.894531 L 112.898438 146.214844 C 117.59375 142.4375 124.464844 143.121094 128.242188 147.816406 C 132.019531 152.511719 131.277344 159.382812 126.582031 163.160156 L 93.664062 189.78125 C 90.289062 192.53125 88.457031 196.539062 88.339844 200.546875 L 78.378906 188.234375 L 78.320312 188.179688 C 74.542969 183.542969 75.289062 176.671875 79.980469 172.894531 Z M 79.980469 172.894531 "/><path style=" stroke:none;fill-rule:evenodd;fill:#000000;fill-opacity:1;" d="M 111.410156 211.710938 C 116.046875 207.929688 122.917969 208.675781 126.695312 213.371094 C 130.476562 218.007812 129.789062 224.878906 125.09375 228.65625 C 120.398438 232.433594 113.527344 231.746094 109.75 227.050781 C 105.972656 222.359375 106.714844 215.488281 111.410156 211.710938 Z M 111.410156 211.710938 "/><path style=" stroke:none;fill-rule:evenodd;fill:#fb7a00;fill-opacity:1;" d="M 112.898438 178.675781 C 117.59375 174.839844 124.40625 175.585938 128.1875 180.277344 C 132.019531 184.917969 131.277344 191.785156 126.582031 195.566406 L 109.523438 209.421875 C 106.085938 212.167969 104.3125 216.234375 104.371094 220.355469 L 94.238281 207.816406 L 94.179688 207.816406 C 90.402344 203.121094 91.144531 196.25 95.785156 192.472656 L 95.839844 192.472656 L 112.902344 178.675781 Z M 112.898438 178.675781 "/><g style="fill:#050a30;fill-opacity:1;"><g transform="translate(137.408757, 197.031397)"><path style="stroke:none" d="M 1.6875 0 L 1.6875 -24.09375 L 20.921875 -24.09375 L 20.921875 -19.9375 L 6.5 -19.9375 L 6.5 -13.9375 L 20.171875 -13.9375 L 20.171875 -9.8125 L 6.5 -9.8125 L 6.5 0 Z M 1.6875 0 "/></g></g><g style="fill:#050a30;fill-opacity:1;"><g transform="translate(159.091324, 197.031397)"><path style="stroke:none" d="M 1.6875 0 L 1.6875 -24.09375 L 6.546875 -24.09375 L 6.546875 -4.125 L 20.921875 -4.125 L 20.921875 0 Z M 1.6875 0 "/></g></g><g style="fill:#050a30;fill-opacity:1;"><g transform="translate(182.150595, 197.031397)"><path style="stroke:none" d="M -0.796875 0 L 11.5 -24.234375 L 15.65625 -24.234375 L 27.875 0 L 22.609375 0 L 19.65625 -5.78125 L 7.296875 -5.78125 L 4.34375 0 Z M 9.296875 -9.78125 L 17.65625 -9.78125 L 15.25 -14.96875 L 13.59375 -19.40625 L 11.8125 -14.90625 Z M 9.296875 -9.78125 "/></g></g><g style="fill:#050a30;fill-opacity:1;"><g transform="translate(208.995672, 197.031397)"><path style="stroke:none" d="M 13.25 0.484375 C 10.769531 0.484375 8.566406 -0.0351562 6.640625 -1.078125 C 4.710938 -2.128906 3.195312 -3.585938 2.09375 -5.453125 C 1 -7.328125 0.453125 -9.503906 0.453125 -11.984375 C 0.453125 -13.816406 0.765625 -15.5 1.390625 -17.03125 C 2.023438 -18.570312 2.914062 -19.910156 4.0625 -21.046875 C 5.207031 -22.179688 6.5625 -23.0625 8.125 -23.6875 C 9.6875 -24.320312 11.394531 -24.640625 13.25 -24.640625 C 14.738281 -24.640625 16.203125 -24.410156 17.640625 -23.953125 C 19.078125 -23.492188 20.378906 -22.753906 21.546875 -21.734375 C 22.710938 -20.710938 23.644531 -19.351562 24.34375 -17.65625 L 20.375 -16.3125 C 19.820312 -17.394531 19.15625 -18.234375 18.375 -18.828125 C 17.601562 -19.421875 16.773438 -19.832031 15.890625 -20.0625 C 15.003906 -20.289062 14.125 -20.40625 13.25 -20.40625 C 11.6875 -20.40625 10.300781 -20.046875 9.09375 -19.328125 C 7.894531 -18.609375 6.960938 -17.613281 6.296875 -16.34375 C 5.628906 -15.082031 5.296875 -13.640625 5.296875 -12.015625 C 5.296875 -10.378906 5.628906 -8.929688 6.296875 -7.671875 C 6.960938 -6.410156 7.894531 -5.425781 9.09375 -4.71875 C 10.300781 -4.007812 11.6875 -3.65625 13.25 -3.65625 C 14.125 -3.65625 15.03125 -3.742188 15.96875 -3.921875 C 16.914062 -4.109375 17.773438 -4.441406 18.546875 -4.921875 C 19.328125 -5.398438 19.925781 -6.066406 20.34375 -6.921875 L 20.34375 -9.90625 L 11.8125 -9.90625 L 11.8125 -13.796875 L 24.609375 -13.796875 L 24.609375 -6.125 C 23.941406 -4.476562 23.007812 -3.171875 21.8125 -2.203125 C 20.625 -1.234375 19.289062 -0.539062 17.8125 -0.125 C 16.332031 0.28125 14.8125 0.484375 13.25 0.484375 Z M 13.25 0.484375 "/></g></g><g style="fill:#050a30;fill-opacity:1;"><g transform="translate(235.599847, 197.031397)"><path style="stroke:none" d="M 12.59375 0.578125 C 11.289062 0.578125 9.945312 0.460938 8.5625 0.234375 C 7.1875 0.00390625 5.890625 -0.390625 4.671875 -0.953125 C 3.460938 -1.515625 2.445312 -2.316406 1.625 -3.359375 C 0.8125 -4.398438 0.328125 -5.722656 0.171875 -7.328125 L 4.921875 -7.921875 C 5.015625 -7.003906 5.3125 -6.25 5.8125 -5.65625 C 6.320312 -5.070312 6.953125 -4.617188 7.703125 -4.296875 C 8.460938 -3.984375 9.265625 -3.757812 10.109375 -3.625 C 10.960938 -3.5 11.769531 -3.4375 12.53125 -3.4375 C 12.988281 -3.4375 13.59375 -3.476562 14.34375 -3.5625 C 15.101562 -3.644531 15.867188 -3.800781 16.640625 -4.03125 C 17.410156 -4.257812 18.070312 -4.585938 18.625 -5.015625 C 19.175781 -5.453125 19.484375 -6.019531 19.546875 -6.71875 C 19.617188 -7.519531 19.453125 -8.148438 19.046875 -8.609375 C 18.648438 -9.066406 18.109375 -9.410156 17.421875 -9.640625 C 16.734375 -9.867188 15.96875 -10.023438 15.125 -10.109375 C 14.289062 -10.203125 13.460938 -10.265625 12.640625 -10.296875 L 11.015625 -10.359375 C 9.890625 -10.410156 8.710938 -10.515625 7.484375 -10.671875 C 6.253906 -10.828125 5.113281 -11.125 4.0625 -11.5625 C 3.007812 -12 2.148438 -12.644531 1.484375 -13.5 C 0.816406 -14.363281 0.484375 -15.519531 0.484375 -16.96875 C 0.484375 -18.226562 0.734375 -19.304688 1.234375 -20.203125 C 1.742188 -21.097656 2.421875 -21.832031 3.265625 -22.40625 C 4.117188 -22.976562 5.066406 -23.425781 6.109375 -23.75 C 7.148438 -24.070312 8.21875 -24.296875 9.3125 -24.421875 C 10.40625 -24.546875 11.441406 -24.609375 12.421875 -24.609375 C 13.660156 -24.609375 14.925781 -24.515625 16.21875 -24.328125 C 17.519531 -24.148438 18.722656 -23.8125 19.828125 -23.3125 C 20.929688 -22.820312 21.835938 -22.097656 22.546875 -21.140625 C 23.253906 -20.191406 23.65625 -18.960938 23.75 -17.453125 L 19 -16.96875 C 18.925781 -17.75 18.65625 -18.390625 18.1875 -18.890625 C 17.71875 -19.398438 17.140625 -19.789062 16.453125 -20.0625 C 15.765625 -20.34375 15.050781 -20.535156 14.3125 -20.640625 C 13.582031 -20.742188 12.921875 -20.796875 12.328125 -20.796875 C 11.910156 -20.796875 11.320312 -20.753906 10.5625 -20.671875 C 9.8125 -20.585938 9.039062 -20.425781 8.25 -20.1875 C 7.457031 -19.945312 6.785156 -19.578125 6.234375 -19.078125 C 5.679688 -18.585938 5.40625 -17.921875 5.40625 -17.078125 C 5.40625 -16.273438 5.671875 -15.675781 6.203125 -15.28125 C 6.742188 -14.894531 7.445312 -14.628906 8.3125 -14.484375 C 9.175781 -14.347656 10.097656 -14.257812 11.078125 -14.21875 C 12.734375 -14.195312 14.359375 -14.097656 15.953125 -13.921875 C 17.546875 -13.753906 18.984375 -13.429688 20.265625 -12.953125 C 21.554688 -12.484375 22.578125 -11.789062 23.328125 -10.875 C 24.085938 -9.957031 24.46875 -8.742188 24.46875 -7.234375 C 24.46875 -5.828125 24.09375 -4.609375 23.34375 -3.578125 C 22.601562 -2.546875 21.628906 -1.707031 20.421875 -1.0625 C 19.222656 -0.425781 17.9375 0.0195312 16.5625 0.28125 C 15.457031 0.476562 14.132812 0.578125 12.59375 0.578125 Z M 12.59375 0.578125 "/></g></g><g style="fill:#050a30;fill-opacity:1;"><g transform="translate(260.965016, 197.031397)"><path style="stroke:none" d="M 1.71875 0 L 1.71875 -24.09375 L 6.546875 -24.09375 L 6.546875 -14.109375 L 19.515625 -14.109375 L 19.515625 -24.09375 L 24.296875 -24.09375 L 24.296875 0 L 19.515625 0 L 19.515625 -9.984375 L 6.546875 -9.984375 L 6.546875 0 Z M 1.71875 0 "/></g></g><g style="fill:#050a30;fill-opacity:1;"><g transform="translate(287.534775, 197.031397)"><path style="stroke:none" d="M 1.71875 0 L 1.71875 -24.09375 L 6.5 -24.09375 L 6.5 0 Z M 1.71875 0 "/></g></g><g style="fill:#050a30;fill-opacity:1;"><g transform="translate(296.311052, 197.031397)"><path style="stroke:none" d="M 1.6875 0 L 1.6875 -24.09375 L 13.5625 -24.09375 C 15.445312 -24.09375 17.101562 -23.796875 18.53125 -23.203125 C 19.96875 -22.609375 21.09375 -21.707031 21.90625 -20.5 C 22.71875 -19.289062 23.125 -17.75 23.125 -15.875 C 23.125 -13.945312 22.6875 -12.363281 21.8125 -11.125 C 20.945312 -9.882812 19.785156 -8.960938 18.328125 -8.359375 C 16.867188 -7.765625 15.257812 -7.46875 13.5 -7.46875 L 6.4375 -7.46875 L 6.4375 0 Z M 6.4375 -11.46875 L 13.53125 -11.46875 C 14.945312 -11.488281 16.117188 -11.816406 17.046875 -12.453125 C 17.984375 -13.097656 18.453125 -14.238281 18.453125 -15.875 C 18.453125 -16.925781 18.234375 -17.75 17.796875 -18.34375 C 17.359375 -18.9375 16.769531 -19.351562 16.03125 -19.59375 C 15.300781 -19.84375 14.476562 -19.96875 13.5625 -19.96875 L 6.4375 -19.96875 Z M 6.4375 -11.46875 "/></g></g></g></svg>